<svg xmlns="http://www.w3.org/2000/svg" data-name="Layer 1" viewBox="0 0 64 64"><path d="M61,27.045A7.057,7.057,0,0,1,56.009,15a1,1,0,0,0,0-1.414L50.417,7.991a1,1,0,0,0-1.414,0,6.949,6.949,0,0,1-7.692,1.53A6.95,6.95,0,0,1,36.955,3a1,1,0,0,0-1-1h-7.91a1,1,0,0,0-1,1,6.95,6.95,0,0,1-4.356,6.521A6.952,6.952,0,0,1,15,7.991a1,1,0,0,0-1.414,0L7.991,13.583a1,1,0,0,0,0,1.414,6.951,6.951,0,0,1,1.53,7.692A6.95,6.95,0,0,1,3,27.045a1,1,0,0,0-1,1v7.91a1,1,0,0,0,1,1,6.95,6.95,0,0,1,6.521,4.356A6.951,6.951,0,0,1,7.991,49a1,1,0,0,0,0,1.414l5.592,5.592a1,1,0,0,0,1.414,0A7.057,7.057,0,0,1,27.045,61a1,1,0,0,0,1,1h7.91a1,1,0,0,0,1-1A7.057,7.057,0,0,1,49,56.009a1,1,0,0,0,1.414,0l5.592-5.592a1,1,0,0,0,0-1.414A7.057,7.057,0,0,1,61,36.955a1,1,0,0,0,1-1v-7.91A1,1,0,0,0,61,27.045Zm-1,7.962a9.064,9.064,0,0,0-6.075,14.666l-4.252,4.252A9.064,9.064,0,0,0,35.007,60H28.993a9.064,9.064,0,0,0-14.666-6.075l-4.252-4.252a8.9,8.9,0,0,0,1.293-9.127A8.894,8.894,0,0,0,4,35.007V28.993a8.894,8.894,0,0,0,7.368-5.539,8.9,8.9,0,0,0-1.293-9.127l4.252-4.252a8.9,8.9,0,0,0,9.127,1.293A8.894,8.894,0,0,0,28.993,4h6.014a8.894,8.894,0,0,0,5.539,7.368,8.9,8.9,0,0,0,9.127-1.293l4.252,4.252A9.064,9.064,0,0,0,60,28.993Z"/><path d="M32,12A20,20,0,1,0,52,32,20.023,20.023,0,0,0,32,12Zm0,38A18,18,0,1,1,50,32,18.021,18.021,0,0,1,32,50Z"/><path d="M41.021 34.793L39.6 40.472a2.965 2.965 0 0 0-3.772.469l-2.865-4.3a2.985 2.985 0 0 0-5.917-.1L24.385 39.2a3 3 0 1 0 .568 2.26L27.615 38.8a2.972 2.972 0 0 0 4.556.26l2.865 4.3a2.984 2.984 0 0 0 5.943-.15l1.42-5.679a3 3 0 1 0-1.378-2.735zM22 42a1 1 0 1 1 1-1A1 1 0 0 1 22 42zm8-4a1 1 0 1 1 1-1A1 1 0 0 1 30 38zm8 6a1 1 0 1 1 1-1A1 1 0 0 1 38 44zm7-9a1 1 0 1 1-1-1A1 1 0 0 1 45 35zM21.953 31.461L24.615 28.8a2.97 2.97 0 0 0 5.006-.37l2.457 1.228a2.988 2.988 0 0 0 5.9-.424l1.27-3.81a3 3 0 1 0-1.222-2.656l-1.27 3.81a2.966 2.966 0 0 0-4.375.994l-2.457-1.228a2.99 2.99 0 0 0-5.875.2L21.385 29.2a3 3 0 1 0 .568 2.26zM41 22a1 1 0 1 1-1 1A1 1 0 0 1 41 22zm-6 6a1 1 0 1 1-1 1A1 1 0 0 1 35 28zm-8-2a1 1 0 1 1-1 1A1 1 0 0 1 27 26zm-9 5a1 1 0 1 1 1 1A1 1 0 0 1 18 31z"/></svg>