<svg xmlns="http://www.w3.org/2000/svg" enable-background="new 0 0 93 93" viewBox="0 0 93 93"><path fill="#EAE6FC" d="M76.97897,85.00009c2.37766-2.42513,4.39471-5.26196,5.90919-9.0662
					c3.08742-7.75471,3.21223-16.55481,0.88059-24.56913c-1.26954-4.36325-3.35993-8.66651-6.91765-11.49336
					c-3.55797-2.82685-8.81802-3.83411-12.72795-1.51848c-2.33139,1.38063-4.00309,3.77424-6.49515,4.83774
					c-4.73701,2.02163-9.81924-1.46236-14.26339-4.06538c-4.96352-2.90738-10.76695-4.90664-16.43781-3.94075
					c-5.67086,0.96588-10.96841,5.57439-11.2694,11.31897c-0.20134,3.84587,1.74835,7.59564,1.36284,11.42733
					c-0.53881,5.35386-5.39174,9.28864-6.90418,14.45253c-1.27056,4.33764,0.00381,8.73299,2.46587,12.61673H76.97897z"/><path fill="#EAF3FA" d="M62.33657,40.06177c-6.61011,0-11.97998,5.38-11.97998,11.98999v5.95001h3.90991v-5.95001
				c0-4.44995,3.61987-8.06995,8.07007-8.06995c4.44995,0,8.06982,3.62,8.06982,8.06995v5.95001h3.91992v-5.95001
				C74.32631,45.44178,68.94643,40.06177,62.33657,40.06177z"/><path fill="#15BDFF" d="M46.17641,67.75513v12H20.49648c-3.31006,0-6-2.69-6-6c0-3.32001,2.68994-6,6-6H46.17641z"/><path fill="#FFF" d="M46.1761,61.00009v21c0,1.65685,1.34315,3,3,3h26.32343c1.65685,0,3-1.34315,3-3v-21
				c0-1.65686-1.34315-3-3-3H49.1761C47.51925,58.00009,46.1761,59.34324,46.1761,61.00009z"/><path d="M64.15424,71.28841l1.05041,5.31339c0.09144,0.47195-0.27394,0.89829-0.74599,0.89829h-4.24773
					c-0.47168,0-0.83743-0.42634-0.74599-0.89829l1.05041-5.31339c-1.03517-0.73075-1.62877-2.05529-1.24815-3.4864
					c0.28918-1.05051,1.15709-1.91832,2.2075-2.19235c2.1313-0.54807,4.04962,1.03526,4.04962,3.0754
					C65.5243,69.76595,64.97643,70.72511,64.15424,71.28841z"/><path fill="#D1D1D1" d="M46.17202,35.87537c-3.43384-3.43384-9.00122-3.43384-12.43506,0
					c-2.4773,2.47723-3.15747,6.06213-2.06055,9.15802l-11.2251,11.22522l0.02881,5.2677l5.26758,0.02887l-0.20288-3.20831
					l3.32397,0.08734l-0.06421-3.34698l3.23145,0.17981l4.91724-4.9173c3.10986,1.12781,6.72534,0.45422,9.21875-2.03918
					C49.6061,44.87665,49.6061,39.30945,46.17202,35.87537z"/><circle cx="41.756" cy="40.292" r="2.25" fill="#FFF"/><path d="M91.5 84.49975h-8.77441c-.27637 0-.5.22363-.5.5s.22363.5.5.5H91.5c.27637 0 .5-.22363.5-.5S91.77637 84.49975 91.5 84.49975zM10.27344 84.49975H1.5c-.27637 0-.5.22363-.5.5s.22363.5.5.5h8.77344c.27637 0 .5-.22363.5-.5S10.5498 84.49975 10.27344 84.49975zM79.15137 84.49975h-1.2146c.00073-.00085.00171-.0014.00269-.00226.66016-.63 1.06006-1.51996 1.06006-2.5v-21c0-1.92999-1.57007-3.5-3.5-3.5h-.66992v-5.45001c0-6.87994-5.61011-12.48999-12.48999-12.48999-6.88013 0-12.47998 5.61005-12.47998 12.48999v5.45001h-.68018c-1.92993 0-3.5 1.57001-3.5 3.5v6.26001H20.49951c-3.58984 0-6.5 2.91003-6.5 6.5 0 3.58002 2.91016 6.5 6.5 6.5h25.17993v1.73999c0 .98004.40015 1.87 1.06006 2.5.00073.00085.00195.0014.00269.00226H13.84766c-.27637 0-.5.22363-.5.5s.22363.5.5.5h65.30371c.27637 0 .5-.22363.5-.5S79.42773 84.49975 79.15137 84.49975zM50.85962 52.04748c0-6.32996 5.1499-11.48999 11.47998-11.48999 6.32983 0 11.48999 5.16003 11.48999 11.48999v5.45001h-2.91992v-5.45001c0-4.71997-3.8501-8.56995-8.57007-8.56995-4.72998 0-8.57007 3.84998-8.57007 8.56995v5.45001h-2.90991V52.04748zM69.90967 57.49749H54.76953v-5.45001c0-4.16998 3.39014-7.56995 7.57007-7.56995 4.16992 0 7.57007 3.39996 7.57007 7.56995V57.49749zM20.49951 79.2575c-3.04004 0-5.5-2.46997-5.5-5.5 0-3.02997 2.45996-5.5 5.5-5.5h25.17993v11H20.49951zM46.67944 81.99749c0-3.28234 0-10.83678 0-14.73999v-6.26001c0-1.38 1.12012-2.5 2.5-2.5h.68018 4.90991 15.14014 4.91992.66992c1.37988 0 2.5 1.12 2.5 2.5v21c0 1.38-1.12012 2.5-2.5 2.5H49.17944C47.79956 84.49749 46.67944 83.37749 46.67944 81.99749z"/><polygon points="24.879 71.381 23.211 73.048 21.544 71.381 20.837 72.088 22.504 73.755 20.836 75.423 21.543 76.13 23.211 74.462 24.878 76.13 25.585 75.423 23.918 73.755 25.586 72.088"/><polygon points="32.998 71.381 31.331 73.048 29.663 71.381 28.956 72.088 30.624 73.755 28.956 75.423 29.663 76.13 31.331 74.462 32.998 76.13 33.705 75.423 32.038 73.755 33.705 72.088"/><polygon points="41.117 71.381 39.45 73.048 37.783 71.381 37.076 72.088 38.743 73.755 37.075 75.423 37.782 76.13 39.45 74.462 41.117 76.13 41.824 75.423 40.157 73.755 41.824 72.088"/><path d="M20.47949 62.02752l5.27002.02997c.01001 0 .01001 0 .02002 0 .27002 0 .5-.22998.5-.5 0-.06-.01001-.12-.03003-.16998l-.15991-2.52997 2.78003.07996c0 0 0 0 .01001 0 .00977 0 .00977 0 .02002 0 .27979 0 .5-.22998.5-.5 0-.04999-.01025-.10999-.02002-.14996l-.05005-2.67004 2.68994.15002c.13989.01001.28003-.04999.38013-.15002l4.69995-4.69c3.19426 1.03065 6.87214.30785 9.43994-2.25995 3.64413-3.66497 3.61444-9.5149 0-13.15002-3.63628-3.6156-9.48547-3.64333-13.15015 0-2.43994 2.45001-3.30981 6.09003-2.27979 9.38l-11 11.01001c-.1001.08997-.15015.21997-.15015.34998l.03003 5.27002C19.97949 61.79748 20.19946 62.02752 20.47949 62.02752zM32.02954 45.3875c.13989-.14001.17993-.34003.11987-.52002-1.06982-3-.2998-6.38995 1.94019-8.63995 3.27641-3.2554 8.48055-3.22859 11.72998 0 3.2303 3.23005 3.25538 8.47472 0 11.72998-2.31591 2.31573-5.6876 3.00065-8.69995 1.91998-.18018-.06-.38013-.01996-.52002.12L31.8396 54.7575c-2.5203-.09989-3.5853-.43304-3.53003.34003l.05005 2.82001c-1.38937.13389-3.38028-.52225-3.31006.45996l.16992 2.66998-4.23999-.01996-.03003-4.56L32.02954 45.3875zM68.49121 17.16869v5.60645h1v-5.60645c0-5.33105-4.33789-9.66846-9.66895-9.66846v1C64.60254 8.50024 68.49121 12.38842 68.49121 17.16869zM50.7793 29.9685c1.41602 3.73145 5.0498 6.23828 9.04297 6.23828 5.33105 0 9.66895-4.33789 9.66895-9.66895h-1c0 4.78027-3.88867 8.66895-8.66895 8.66895-3.58105 0-6.83887-2.24805-8.10742-5.59375L50.7793 29.9685zM51.15332 17.16869c0-3.69043 2.34082-6.98291 5.82617-8.19238l-.32813-.94434c-3.88672 1.34863-6.49805 5.02051-6.49805 9.13672v9.36914h1V17.16869z"/><path d="M53.03906 20.06225v6.47559c0 3.73926 3.04297 6.78223 6.7832 6.78223v-1c-3.18848 0-5.7832-2.59375-5.7832-5.78223v-6.47559H53.03906zM63.49023 32.24096c1.9502-1.25879 3.11426-3.39063 3.11426-5.70313v-9.36816h-1v9.36816c0 1.97168-.99316 3.78906-2.65723 4.86328L63.49023 32.24096zM53.03906 17.16967h1c0-3.18848 2.59473-5.7832 5.7832-5.7832 2.03418 0 3.88184 1.04199 4.94434 2.78613l.85352-.51953c-1.24414-2.04541-3.41211-3.2666-5.79785-3.2666C56.08203 10.38647 53.03906 13.42944 53.03906 17.16967z"/><path d="M59.82227 13.36108v1c1.57715 0 2.85938 1.28223 2.85938 2.85938v5.54492h1v-5.54492C63.68164 15.09252 61.9502 13.36108 59.82227 13.36108zM57.77539 15.22533l-.7168-.69727c-.70703.72559-1.09668 1.68164-1.09668 2.69238v9.2666c0 2.12793 1.73145 3.8584 3.86035 3.8584 2.12793 0 3.85938-1.73047 3.85938-3.8584h-1c0 1.57617-1.2832 2.8584-2.85938 2.8584-1.57715 0-2.86035-1.28223-2.86035-2.8584v-9.2666C56.96191 16.4724 57.25098 15.76342 57.77539 15.22533z"/><rect width="1" height="8.128" x="59.322" y="17.79"/><g><path fill="#FF2E57" d="M42.65918,10.62719c-1.30371,0-2.36523-1.06104-2.36523-2.36523c0-0.13818-0.1123-0.25-0.25-0.25
				s-0.25,0.11182-0.25,0.25c0,1.3042-1.06055,2.36523-2.36426,2.36523c-0.1377,0-0.25,0.11182-0.25,0.25s0.1123,0.25,0.25,0.25
				c1.30371,0,2.36426,1.06104,2.36426,2.36475c0,0.1377,0.1123,0.25,0.25,0.25s0.25-0.1123,0.25-0.25
				c0-1.30371,1.06152-2.36475,2.36523-2.36475c0.1377,0,0.25-0.11182,0.25-0.25S42.79688,10.62719,42.65918,10.62719z
				 M40.04395,12.33263c-0.28833-0.64746-0.80811-1.1673-1.45532-1.45551c0.64722-0.28833,1.16699-0.80829,1.45532-1.45581
				c0.28833,0.64752,0.80835,1.16748,1.45581,1.45581C40.85229,11.16534,40.33228,11.68517,40.04395,12.33263z"/></g><g><path fill="#00CE4A" d="M21.75879,26.15209c-1.30371,0-2.36523-1.06152-2.36523-2.36523c0-0.1377-0.1123-0.25-0.25-0.25
				s-0.25,0.1123-0.25,0.25c0,1.30371-1.06152,2.36523-2.36523,2.36523c-0.1377,0-0.25,0.1123-0.25,0.25s0.1123,0.25,0.25,0.25
				c1.30371,0,2.36523,1.06055,2.36523,2.36426c0,0.1377,0.1123,0.25,0.25,0.25s0.25-0.1123,0.25-0.25
				c0-1.30371,1.06152-2.36426,2.36523-2.36426c0.1377,0,0.25-0.1123,0.25-0.25S21.89648,26.15209,21.75879,26.15209z
				 M19.14355,27.85754c-0.28833-0.64728-0.80811-1.16718-1.45581-1.45544c0.64771-0.28833,1.16748-0.80829,1.45581-1.45587
				c0.28833,0.64758,0.80835,1.16754,1.45581,1.45587C19.9519,26.69036,19.43188,27.21026,19.14355,27.85754z"/></g><g><path fill="#2E1C66" d="M80.83105,24.24487c-1.30371,0-2.36523-1.06152-2.36523-2.36523c0-0.1377-0.1123-0.25-0.25-0.25
				s-0.25,0.1123-0.25,0.25c0,1.30371-1.06152,2.36523-2.36523,2.36523c-0.1377,0-0.25,0.1123-0.25,0.25s0.1123,0.25,0.25,0.25
				c1.30371,0,2.36523,1.06152,2.36523,2.36523c0,0.1377,0.1123,0.25,0.25,0.25s0.25-0.1123,0.25-0.25
				c0-1.30371,1.06152-2.36523,2.36523-2.36523c0.1377,0,0.25-0.1123,0.25-0.25S80.96875,24.24487,80.83105,24.24487z
				 M78.21582,25.95068c-0.28833-0.64758-0.80811-1.16748-1.45581-1.45581c0.64771-0.28833,1.16748-0.80829,1.45581-1.45587
				c0.28833,0.64758,0.80835,1.16754,1.45581,1.45587C79.02417,24.7832,78.50415,25.30309,78.21582,25.95068z"/></g></svg>