<?xml version="1.0" encoding="UTF-8" standalone="no"?>
<svg
   xmlns:dc="http://purl.org/dc/elements/1.1/"
   xmlns:cc="http://creativecommons.org/ns#"
   xmlns:rdf="http://www.w3.org/1999/02/22-rdf-syntax-ns#"
   xmlns:svg="http://www.w3.org/2000/svg"
   xmlns="http://www.w3.org/2000/svg"
   viewBox="0 0 399.73334 399.73334"
   height="399.73334"
   width="399.73334"
   xml:space="preserve"
   id="svg2"
   version="1.1"><metadata
     id="metadata8"><rdf:RDF><cc:Work
         rdf:about=""><dc:format>image/svg+xml</dc:format><dc:type
           rdf:resource="http://purl.org/dc/dcmitype/StillImage" /></cc:Work></rdf:RDF></metadata><defs
     id="defs6" /><g
     transform="matrix(1.3333333,0,0,-1.3333333,0,399.73333)"
     id="g10"><g
       transform="scale(0.1)"
       id="g12"><path
         id="path14"
         style="fill:#3971bb;fill-opacity:1;fill-rule:nonzero;stroke:none"
         d="M 482.367,481.789 H 2515.65 V 2516.23 H 482.367 Z M 2171.47,0.0117188 c -15.11,0 -27.41,12.2890812 -27.41,27.3984812 V 428.832 H 1862.65 V 27.4102 c 0,-15.1094 -12.3,-27.3984812 -27.41,-27.3984812 -15.11,0 -27.41,12.2890812 -27.41,27.3984812 V 428.832 H 1526.42 V 27.4102 c 0,-15.1094 -12.3,-27.3984812 -27.41,-27.3984812 -15.11,0 -27.41,12.2890812 -27.41,27.3984812 V 428.832 H 1190.19 V 27.4102 c 0,-15.1094 -12.3,-27.3984812 -27.41,-27.3984812 -15.11,0 -27.41,12.2890812 -27.41,27.3984812 V 428.832 H 853.984 V 27.4102 c 0,-15.1094 -12.296,-27.3984812 -27.41,-27.3984812 -15.109,0 -27.402,12.2890812 -27.402,27.3984812 V 428.832 H 456.227 c -15.114,0 -27.407,12.289 -27.407,27.398 V 799.141 H 27.4102 C 12.2969,799.141 0,811.43 0,826.551 c 0,15.109 12.2969,27.41 27.4102,27.41 H 428.82 V 1135.38 H 27.4102 C 12.2969,1135.38 0,1147.67 0,1162.78 c 0,15.12 12.2969,27.41 27.4102,27.41 H 428.82 v 281.42 H 27.4102 C 12.2969,1471.61 0,1483.9 0,1499.01 c 0,15.12 12.2969,27.41 27.4102,27.41 H 428.82 v 281.42 H 27.4102 C 12.2969,1807.84 0,1820.13 0,1835.24 c 0,15.12 12.2969,27.41 27.4102,27.41 H 428.82 v 281.42 H 27.4102 C 12.2969,2144.07 0,2156.36 0,2171.47 c 0,15.12 12.2969,27.41 27.4102,27.41 H 428.82 v 342.91 c 0,15.12 12.293,27.42 27.407,27.42 h 342.945 v 401.4 c 0,15.12 12.293,27.41 27.402,27.41 15.114,0 27.41,-12.29 27.41,-27.41 v -401.4 h 281.386 v 401.4 c 0,15.12 12.3,27.41 27.41,27.41 15.11,0 27.41,-12.29 27.41,-27.41 v -401.4 h 281.41 v 401.4 c 0,15.12 12.3,27.41 27.41,27.41 15.11,0 27.41,-12.29 27.41,-27.41 v -401.4 h 281.41 v 401.4 c 0,15.12 12.3,27.41 27.41,27.41 15.11,0 27.41,-12.29 27.41,-27.41 v -401.4 h 281.41 v 401.4 c 0,15.12 12.3,27.41 27.41,27.41 15.11,0 27.41,-12.29 27.41,-27.41 v -401.4 h 342.91 c 15.12,0 27.41,-12.3 27.41,-27.42 v -342.91 h 401.41 c 15.11,0 27.41,-12.29 27.41,-27.41 0,-15.11 -12.3,-27.4 -27.41,-27.4 H 2569.2 v -281.42 h 401.41 c 15.11,0 27.41,-12.29 27.41,-27.41 0,-15.11 -12.3,-27.4 -27.41,-27.4 H 2569.2 v -281.42 h 401.41 c 15.11,0 27.41,-12.29 27.41,-27.41 0,-15.11 -12.3,-27.4 -27.41,-27.4 H 2569.2 v -281.42 h 401.41 c 15.11,0 27.41,-12.29 27.41,-27.41 0,-15.11 -12.3,-27.4 -27.41,-27.4 H 2569.2 V 853.961 h 401.41 c 15.11,0 27.41,-12.301 27.41,-27.41 0,-15.121 -12.3,-27.41 -27.41,-27.41 H 2569.2 V 456.23 c 0,-15.109 -12.29,-27.398 -27.41,-27.398 H 2198.88 V 27.4102 c 0,-15.1094 -12.3,-27.3984812 -27.41,-27.3984812" /><path
         id="path16"
         style="fill:#3971bb;fill-opacity:1;fill-rule:nonzero;stroke:none"
         d="m 1463.88,1982.57 c -89.55,0 -162.41,-72.87 -162.41,-162.42 0,-35.69 29.03,-64.72 64.72,-64.72 h 269.07 c 35.69,0 64.72,29.03 64.72,64.72 0,89.55 -72.86,162.42 -162.41,162.42 z m -218.06,-194.44 c -33.46,-14.32 -69.46,-70.2 -69.46,-159.07 v -257.93 c 0,-79.44 29.63,-155.92 83.44,-215.33 53.22,-58.79 125.57,-96.13 203.7,-105.16 l 11.97,-1.37 v 659.09 h -109.28 c -47.57,0 -90.18,29.55 -106.05,73.54 l -3.86,10.7 z m 276.73,-739.13 11.85,1.24 c 163.77,17.06 287.26,155.02 287.26,320.89 v 257.93 c 0,102.68 -42.58,148.3 -67.74,159.07 l -10.46,4.47 -3.86,-10.71 c -16.12,-44.68 -57.07,-73.53 -104.34,-73.53 h -112.71 z m -21.83,-47.59 c -149,0 -282.79,88.89 -340.83,226.47 l -2.8,6.62 -7.19,-0.06 c -112.08,-0.97 -168.912,-58.77 -168.912,-171.79 v -30.85 c 0,-12.97 -10.558,-23.53 -23.539,-23.53 -12.98,0 -23.539,10.56 -23.539,23.53 v 30.85 c 0,132.14 69.12,209.59 194.64,218.1 l 12.36,0.84 -2.58,12.12 c -6.09,28.43 -9.04,53.75 -9.04,77.42 V 1441 H 875.188 c -12.985,0 -23.54,10.56 -23.54,23.54 0,12.98 10.555,23.53 23.54,23.53 h 254.102 v 140.99 c 0.03,0.55 0.12,1.03 0.22,1.52 0.38,2.04 0.69,3.76 0.73,5.77 l 0.23,10 -9.96,0.93 c -120.33,11.23 -186.6,88.46 -186.6,217.43 v 30.85 c 0,12.98 10.559,23.54 23.539,23.54 12.981,0 23.539,-10.56 23.539,-23.54 v -30.85 c 0,-105.28 49.282,-162.74 146.492,-170.8 l 9.32,-0.77 2.04,9.13 c 16.71,74.69 56.37,124.01 108.8,135.33 l 7.41,1.59 0.98,7.5 c 8.99,68.53 51.23,128.16 112.98,159.5 l 13.08,6.64 -10.29,10.46 c -25.98,26.43 -40.29,60.96 -40.29,97.21 v 30.42 c 0,12.97 10.56,23.53 23.54,23.53 12.98,0 23.54,-10.56 23.54,-23.53 v -30.42 c 0,-50.1 41.53,-90.86 92.57,-90.86 h 59.13 c 51.04,0 92.57,40.76 92.57,90.86 v 30.42 c 0,12.97 10.56,23.53 23.54,23.53 12.98,0 23.53,-10.56 23.53,-23.53 v -30.42 c 0,-36.25 -14.3,-70.78 -40.29,-97.21 l -10.27,-10.46 13.08,-6.64 c 61.6,-31.27 103.75,-90.9 112.75,-159.5 l 0.99,-7.5 7.4,-1.59 c 52.44,-11.32 92.11,-60.54 108.85,-135.05 l 2.07,-9.24 9.43,0.9 c 94.95,9.11 143.1,66.47 143.1,170.5 v 30.85 c 0,12.98 10.55,23.54 23.53,23.54 12.99,0 23.54,-10.56 23.54,-23.54 v -30.85 c 0,-127.56 -65.7,-204.67 -185,-217.11 l -9.85,-1.03 0.23,-9.89 c -0.01,-0.38 -0.13,-1.38 -0.25,-2.15 -0.25,-1.7 -0.5,-3.45 -0.5,-5.47 v -140.99 h 254.1 c 12.98,0 23.53,-10.55 23.53,-23.53 0,-12.98 -10.55,-23.54 -23.53,-23.54 h -254.1 v -69.86 c 0,-29.13 -2.41,-54.53 -7.38,-77.65 l -2.57,-12 12.25,-0.96 c 124.5,-9.7 193.07,-87.08 193.07,-217.88 v -30.85 c 0,-12.97 -10.55,-23.53 -23.54,-23.53 -12.98,0 -23.53,10.56 -23.53,23.53 v 30.85 c 0,111.83 -55.65,169.61 -165.4,171.73 l -7.27,0.15 -2.83,-6.7 c -58.05,-137.55 -191.83,-226.42 -340.82,-226.42" /></g></g></svg>